# xmcd
#
# Track frame offsets: 
#        150
#        31435
#        47430
#        70273
#        94688
#        114453
#        144598
#        167760
#        189388
#        211083
#
# Disc length: 3048 seconds
#
# Revision: 2
# Processed by: cddbd v1.5.2PL0 Copyright (c) Steve Scherf et al.
# Submitted via: ExactAudioCopy v1.0b3
#
DISCID=830be60a
DTITLE=Various Artist - Khieu Vu Bebop Rumba Chacha
DYEAR=1990
DGENRE=
TTITLE0=Kieu Nga - Nang Xuan [rumba]
TTITLE1=Carol Kim - Hoi nang Carol [chacha]
TTITLE2=Elvis Phuong - Nguoi cha dau yeu [bebop]
TTITLE3=Ngoc Lan - Mot doi yeu anh [rumba]
TTITLE4=Kieu Nga - Em da yeu [chacha]
TTITLE5=Trung Hanh - Tron tinh yeu nhau [bebop]
TTITLE6=Ngoc Lan - Tinh yeu dam say [rumba]
TTITLE7=Elvis Phuong - Song tinh [chacha]
TTITLE8=Minh Xuan - Tinh yeu trong tim [bebop]
TTITLE9=Cong Thanh - Yeu nguoi xa xua [rumba]
EXTD=
EXTT0=
EXTT1=
EXTT2=
EXTT3=
EXTT4=
EXTT5=
EXTT6=
EXTT7=
EXTT8=
EXTT9=
PLAYORDER=
